<?xml version="1.0" encoding="utf-8" standalone="no"?>
<!DOCTYPE svg PUBLIC "-//W3C//DTD SVG 1.1//EN"
  "http://www.w3.org/Graphics/SVG/1.1/DTD/svg11.dtd">
<svg xmlns:xlink="http://www.w3.org/1999/xlink" width="379.11375pt" height="272.534688pt" viewBox="0 0 379.11375 272.534688" xmlns="http://www.w3.org/2000/svg" version="1.1">
 <metadata>
  <rdf:RDF xmlns:dc="http://purl.org/dc/elements/1.1/" xmlns:cc="http://creativecommons.org/ns#" xmlns:rdf="http://www.w3.org/1999/02/22-rdf-syntax-ns#">
   <cc:Work>
    <dc:type rdf:resource="http://purl.org/dc/dcmitype/StillImage"/>
    <dc:date>2026-09-17T15:48:11.561772</dc:date>
    <dc:format>image/svg+xml</dc:format>
    <dc:creator>
     <cc:Agent>
      <dc:title>Matplotlib v3.10.9, https://matplotlib.org/</dc:title>
     </cc:Agent>
    </dc:creator>
   </cc:Work>
  </rdf:RDF>
 </metadata>
 <defs>
  <style type="text/css">*{stroke-linejoin: round; stroke-linecap: butt}</style>
 </defs>
 <g id="figure_1">
  <g id="patch_1">
   <path d="M 0 272.534688 
L 379.11375 272.534688 
L 379.11375 0 
L 0 0 
z
" style="fill: #ffffff"/>
  </g>
  <g id="axes_1">
   <g id="patch_2">
    <path d="M 50.555 229.770313 
L 371.91375 229.770313 
L 371.91375 33.130312 
L 50.555 33.130312 
z
" style="fill: #ffffff"/>
   </g>
   <g id="line2d_1">
    <path d="M 50.555 131.450312 
L 371.91375 131.450312 
" clip-path="url(#p8ddd74eabe)" style="fill: none; stroke-dasharray: 2.96,1.28; stroke-dashoffset: 0; stroke: #999999; stroke-width: 0.8"/>
   </g>
   <g id="matplotlib.axis_1">
    <g id="xtick_1">
     <g id="line2d_2">
      <defs>
       <path id="m2cc1fc5f87" d="M 0 0 
L 0 3.5 
" style="stroke: #808080; stroke-width: 0.8"/>
      </defs>
      <g>
       <use xlink:href="#m2cc1fc5f87" x="65.162216" y="229.770313" style="fill: #808080; stroke: #808080; stroke-width: 0.8"/>
      </g>
     </g>
     <g id="text_1">
      <!-- 1 -->
      <g style="fill: #808080" transform="translate(62.180028 245.314688) scale(0.12 -0.12)">
       <defs>
        <path id="SourceSans3-Regular-31" d="M 506 0 
L 506 435 
L 1440 435 
L 1440 3443 
L 698 3443 
L 698 3782 
Q 979 3834 1187 3907 
Q 1395 3981 1562 4083 
L 1965 4083 
L 1965 435 
L 2810 435 
L 2810 0 
L 506 0 
z
" transform="scale(0.015625)"/>
       </defs>
       <use xlink:href="#SourceSans3-Regular-31"/>
      </g>
     </g>
    </g>
    <g id="xtick_2">
     <g id="line2d_3">
      <g>
       <use xlink:href="#m2cc1fc5f87" x="118.821376" y="229.770313" style="fill: #808080; stroke: #808080; stroke-width: 0.8"/>
      </g>
     </g>
     <g id="text_2">
      <!-- 10 -->
      <g style="fill: #808080" transform="translate(112.857001 245.314688) scale(0.12 -0.12)">
       <defs>
        <path id="SourceSans3-Regular-30" d="M 1594 -77 
Q 979 -77 630 476 
Q 282 1030 282 2054 
Q 282 3085 630 3622 
Q 979 4160 1594 4160 
Q 2202 4160 2550 3622 
Q 2899 3085 2899 2054 
Q 2899 1030 2550 476 
Q 2202 -77 1594 -77 
z
M 1594 346 
Q 1952 346 2169 752 
Q 2387 1158 2387 2054 
Q 2387 2950 2169 3344 
Q 1952 3738 1594 3738 
Q 1235 3738 1014 3344 
Q 794 2950 794 2054 
Q 794 1158 1014 752 
Q 1235 346 1594 346 
z
" transform="scale(0.015625)"/>
       </defs>
       <use xlink:href="#SourceSans3-Regular-31"/>
       <use xlink:href="#SourceSans3-Regular-30" transform="translate(49.699997 0)"/>
      </g>
     </g>
    </g>
    <g id="xtick_3">
     <g id="line2d_4">
      <g>
       <use xlink:href="#m2cc1fc5f87" x="178.442666" y="229.770313" style="fill: #808080; stroke: #808080; stroke-width: 0.8"/>
      </g>
     </g>
     <g id="text_3">
      <!-- 20 -->
      <g style="fill: #808080" transform="translate(172.478291 245.314688) scale(0.12 -0.12)">
       <defs>
        <path id="SourceSans3-Regular-32" d="M 256 0 
L 256 320 
Q 870 922 1299 1386 
Q 1728 1850 1952 2227 
Q 2176 2605 2176 2931 
Q 2176 3283 1984 3507 
Q 1792 3731 1402 3731 
Q 1146 3731 928 3587 
Q 710 3443 531 3238 
L 237 3526 
Q 493 3814 784 3987 
Q 1075 4160 1466 4160 
Q 2035 4160 2361 3830 
Q 2688 3501 2688 2963 
Q 2688 2566 2467 2176 
Q 2246 1786 1862 1357 
Q 1478 928 979 416 
Q 1146 429 1325 441 
Q 1504 454 1664 454 
L 2893 454 
L 2893 0 
L 256 0 
z
" transform="scale(0.015625)"/>
       </defs>
       <use xlink:href="#SourceSans3-Regular-32"/>
       <use xlink:href="#SourceSans3-Regular-30" transform="translate(49.699997 0)"/>
      </g>
     </g>
    </g>
    <g id="xtick_4">
     <g id="line2d_5">
      <g>
       <use xlink:href="#m2cc1fc5f87" x="238.063955" y="229.770313" style="fill: #808080; stroke: #808080; stroke-width: 0.8"/>
      </g>
     </g>
     <g id="text_4">
      <!-- 30 -->
      <g style="fill: #808080" transform="translate(232.09958 245.314688) scale(0.12 -0.12)">
       <defs>
        <path id="SourceSans3-Regular-33" d="M 1510 -77 
Q 1024 -77 697 99 
Q 371 275 166 499 
L 435 845 
Q 621 653 870 505 
Q 1120 358 1478 358 
Q 1850 358 2086 563 
Q 2323 768 2323 1107 
Q 2323 1350 2198 1532 
Q 2074 1715 1789 1817 
Q 1504 1920 1018 1920 
L 1018 2323 
Q 1453 2323 1705 2425 
Q 1958 2528 2067 2701 
Q 2176 2874 2176 3085 
Q 2176 3386 1987 3558 
Q 1798 3731 1472 3731 
Q 1216 3731 1001 3616 
Q 787 3501 602 3315 
L 320 3648 
Q 557 3872 845 4016 
Q 1133 4160 1491 4160 
Q 2022 4160 2368 3888 
Q 2714 3616 2714 3123 
Q 2714 2752 2509 2515 
Q 2304 2278 1971 2150 
L 1971 2125 
Q 2342 2042 2598 1776 
Q 2854 1510 2854 1088 
Q 2854 730 2675 467 
Q 2496 205 2192 64 
Q 1888 -77 1510 -77 
z
" transform="scale(0.015625)"/>
       </defs>
       <use xlink:href="#SourceSans3-Regular-33"/>
       <use xlink:href="#SourceSans3-Regular-30" transform="translate(49.699997 0)"/>
      </g>
     </g>
    </g>
    <g id="xtick_5">
     <g id="line2d_6">
      <g>
       <use xlink:href="#m2cc1fc5f87" x="297.685245" y="229.770313" style="fill: #808080; stroke: #808080; stroke-width: 0.8"/>
      </g>
     </g>
     <g id="text_5">
      <!-- 40 -->
      <g style="fill: #808080" transform="translate(291.72087 245.314688) scale(0.12 -0.12)">
       <defs>
        <path id="SourceSans3-Regular-34" d="M 666 1549 
L 1946 1549 
L 1946 2733 
Q 1946 2899 1958 3129 
Q 1971 3360 1978 3520 
L 1952 3520 
Q 1875 3373 1792 3232 
Q 1709 3091 1619 2944 
L 666 1549 
z
M 1946 0 
L 1946 1126 
L 109 1126 
L 109 1472 
L 1856 4083 
L 2445 4083 
L 2445 1549 
L 3002 1549 
L 3002 1126 
L 2445 1126 
L 2445 0 
L 1946 0 
z
" transform="scale(0.015625)"/>
       </defs>
       <use xlink:href="#SourceSans3-Regular-34"/>
       <use xlink:href="#SourceSans3-Regular-30" transform="translate(49.699997 0)"/>
      </g>
     </g>
    </g>
    <g id="xtick_6">
     <g id="line2d_7">
      <g>
       <use xlink:href="#m2cc1fc5f87" x="357.306534" y="229.770313" style="fill: #808080; stroke: #808080; stroke-width: 0.8"/>
      </g>
     </g>
     <g id="text_6">
      <!-- 50 -->
      <g style="fill: #808080" transform="translate(351.342159 245.314688) scale(0.12 -0.12)">
       <defs>
        <path id="SourceSans3-Regular-35" d="M 1498 -77 
Q 1011 -77 691 96 
Q 371 269 160 480 
L 416 826 
Q 602 646 845 502 
Q 1088 358 1446 358 
Q 1824 358 2083 611 
Q 2342 864 2342 1293 
Q 2342 1715 2105 1952 
Q 1869 2189 1472 2189 
Q 1261 2189 1110 2125 
Q 960 2061 774 1939 
L 493 2118 
L 627 4083 
L 2669 4083 
L 2669 3629 
L 1088 3629 
L 979 2419 
Q 1126 2496 1273 2541 
Q 1421 2586 1606 2586 
Q 1958 2586 2243 2448 
Q 2528 2310 2701 2028 
Q 2874 1747 2874 1306 
Q 2874 864 2678 553 
Q 2483 243 2169 83 
Q 1856 -77 1498 -77 
z
" transform="scale(0.015625)"/>
       </defs>
       <use xlink:href="#SourceSans3-Regular-35"/>
       <use xlink:href="#SourceSans3-Regular-30" transform="translate(49.699997 0)"/>
      </g>
     </g>
    </g>
    <g id="text_7">
     <!-- O$_2$ uptake bound (mmol O$_2$ gDW$^{-1}$ h$^{-1}$) -->
     <g style="fill: #808080" transform="translate(110.314375 262.574688) scale(0.12 -0.12)">
      <defs>
       <path id="SourceSans3-Regular-4f" d="M 2125 -77 
Q 1600 -77 1193 192 
Q 787 461 560 953 
Q 333 1446 333 2118 
Q 333 2790 560 3273 
Q 787 3757 1193 4016 
Q 1600 4275 2125 4275 
Q 2656 4275 3059 4016 
Q 3462 3757 3692 3273 
Q 3923 2790 3923 2118 
Q 3923 1446 3692 953 
Q 3462 461 3059 192 
Q 2656 -77 2125 -77 
z
M 2125 390 
Q 2502 390 2780 604 
Q 3059 819 3212 1206 
Q 3366 1594 3366 2118 
Q 3366 2899 3027 3353 
Q 2688 3808 2125 3808 
Q 1562 3808 1222 3353 
Q 883 2899 883 2118 
Q 883 1594 1036 1206 
Q 1190 819 1472 604 
Q 1754 390 2125 390 
z
" transform="scale(0.015625)"/>
       <path id="DejaVuSans-32" d="M 1228 531 
L 3431 531 
L 3431 0 
L 469 0 
L 469 531 
Q 828 903 1448 1529 
Q 2069 2156 2228 2338 
Q 2531 2678 2651 2914 
Q 2772 3150 2772 3378 
Q 2772 3750 2511 3984 
Q 2250 4219 1831 4219 
Q 1534 4219 1204 4116 
Q 875 4013 500 3803 
L 500 4441 
Q 881 4594 1212 4672 
Q 1544 4750 1819 4750 
Q 2544 4750 2975 4387 
Q 3406 4025 3406 3419 
Q 3406 3131 3298 2873 
Q 3191 2616 2906 2266 
Q 2828 2175 2409 1742 
Q 1991 1309 1228 531 
z
" transform="scale(0.015625)"/>
       <path id="SourceSans3-Regular-20" transform="scale(0.015625)"/>
       <path id="SourceSans3-Regular-75" d="M 1434 -77 
Q 941 -77 710 233 
Q 480 544 480 1139 
L 480 3110 
L 1011 3110 
L 1011 1210 
Q 1011 774 1148 576 
Q 1286 378 1594 378 
Q 1837 378 2025 502 
Q 2214 627 2432 902 
L 2432 3110 
L 2957 3110 
L 2957 0 
L 2522 0 
L 2477 486 
L 2458 486 
Q 2240 230 1997 76 
Q 1754 -77 1434 -77 
z
" transform="scale(0.015625)"/>
       <path id="SourceSans3-Regular-70" d="M 525 -1312 
L 525 3110 
L 960 3110 
L 1005 2752 
L 1024 2752 
Q 1235 2931 1488 3059 
Q 1741 3187 2016 3187 
Q 2618 3187 2931 2755 
Q 3245 2323 3245 1600 
Q 3245 1075 3056 697 
Q 2867 320 2563 121 
Q 2259 -77 1901 -77 
Q 1683 -77 1468 19 
Q 1254 115 1037 282 
L 1050 -262 
L 1050 -1312 
L 525 -1312 
z
M 1811 365 
Q 2195 365 2448 694 
Q 2701 1024 2701 1600 
Q 2701 2112 2512 2429 
Q 2323 2746 1882 2746 
Q 1683 2746 1481 2637 
Q 1280 2528 1050 2323 
L 1050 691 
Q 1261 512 1459 438 
Q 1658 365 1811 365 
z
" transform="scale(0.015625)"/>
       <path id="SourceSans3-Regular-74" d="M 1504 -58 
Q 1005 -58 809 227 
Q 614 512 614 979 
L 614 2682 
L 154 2682 
L 154 3078 
L 640 3110 
L 704 4109 
L 1146 4109 
L 1146 3110 
L 1984 3110 
L 1984 2682 
L 1146 2682 
L 1146 966 
Q 1146 685 1251 528 
Q 1357 371 1626 371 
Q 1709 371 1798 387 
Q 1888 403 1978 448 
L 2086 77 
Q 1965 13 1814 -22 
Q 1664 -58 1504 -58 
z
" transform="scale(0.015625)"/>
       <path id="SourceSans3-Regular-61" d="M 1242 -77 
Q 851 -77 588 153 
Q 326 384 326 806 
Q 326 1331 787 1600 
Q 1248 1869 2246 1978 
Q 2246 2176 2188 2349 
Q 2131 2522 1993 2634 
Q 1856 2746 1600 2746 
Q 1331 2746 1094 2643 
Q 858 2541 672 2426 
L 467 2784 
Q 685 2931 1001 3059 
Q 1318 3187 1690 3187 
Q 2259 3187 2515 2838 
Q 2771 2490 2771 1907 
L 2771 0 
L 2336 0 
L 2291 371 
L 2272 371 
Q 2042 186 1789 54 
Q 1536 -77 1242 -77 
z
M 1389 358 
Q 1613 358 1817 460 
Q 2022 563 2246 762 
L 2246 1600 
Q 1722 1542 1414 1440 
Q 1107 1338 976 1190 
Q 845 1043 845 838 
Q 845 582 1005 470 
Q 1165 358 1389 358 
z
" transform="scale(0.015625)"/>
       <path id="SourceSans3-Regular-6b" d="M 525 0 
L 525 4557 
L 1050 4557 
L 1050 1478 
L 1062 1478 
L 2381 3110 
L 2970 3110 
L 1933 1856 
L 3110 0 
L 2534 0 
L 1626 1498 
L 1050 819 
L 1050 0 
L 525 0 
z
" transform="scale(0.015625)"/>
       <path id="SourceSans3-Regular-65" d="M 1702 2758 
Q 1510 2758 1328 2665 
Q 1146 2573 1014 2368 
Q 883 2163 838 1830 
L 2458 1830 
Q 2458 2285 2259 2521 
Q 2061 2758 1702 2758 
z
M 1786 -77 
Q 1370 -77 1027 115 
Q 685 307 486 675 
Q 288 1043 288 1555 
Q 288 2061 489 2425 
Q 691 2790 1014 2988 
Q 1338 3187 1696 3187 
Q 2298 3187 2614 2790 
Q 2931 2394 2931 1728 
Q 2931 1645 2924 1568 
Q 2918 1491 2906 1414 
L 826 1414 
Q 864 890 1161 621 
Q 1459 352 1850 352 
Q 2074 352 2269 416 
Q 2464 480 2624 589 
L 2816 243 
Q 2611 102 2358 12 
Q 2106 -77 1786 -77 
z
" transform="scale(0.015625)"/>
       <path id="SourceSans3-Regular-62" d="M 1901 -77 
Q 1683 -77 1449 28 
Q 1216 134 1011 320 
L 992 320 
L 947 0 
L 525 0 
L 525 4557 
L 1050 4557 
L 1050 3315 
L 1037 2752 
Q 1248 2938 1501 3062 
Q 1754 3187 2010 3187 
Q 2618 3187 2931 2758 
Q 3245 2330 3245 1606 
Q 3245 1075 3056 697 
Q 2867 320 2563 121 
Q 2259 -77 1901 -77 
z
M 1811 365 
Q 2195 365 2448 694 
Q 2701 1024 2701 1600 
Q 2701 2112 2512 2429 
Q 2323 2746 1882 2746 
Q 1683 2746 1478 2637 
Q 1274 2528 1050 2323 
L 1050 691 
Q 1254 512 1456 438 
Q 1658 365 1811 365 
z
" transform="scale(0.015625)"/>
       <path id="SourceSans3-Regular-6f" d="M 1734 -77 
Q 1357 -77 1027 115 
Q 698 307 496 672 
Q 294 1037 294 1549 
Q 294 2074 496 2438 
Q 698 2803 1027 2995 
Q 1357 3187 1734 3187 
Q 2118 3187 2444 2995 
Q 2771 2803 2972 2438 
Q 3174 2074 3174 1549 
Q 3174 1037 2972 672 
Q 2771 307 2444 115 
Q 2118 -77 1734 -77 
z
M 1734 358 
Q 2138 358 2384 688 
Q 2630 1018 2630 1549 
Q 2630 2086 2384 2419 
Q 2138 2752 1734 2752 
Q 1338 2752 1088 2419 
Q 838 2086 838 1549 
Q 838 1018 1088 688 
Q 1338 358 1734 358 
z
" transform="scale(0.015625)"/>
       <path id="SourceSans3-Regular-6e" d="M 525 0 
L 525 3110 
L 960 3110 
L 1005 2662 
L 1024 2662 
Q 1248 2886 1497 3036 
Q 1747 3187 2067 3187 
Q 2560 3187 2787 2876 
Q 3014 2566 3014 1971 
L 3014 0 
L 2490 0 
L 2490 1901 
Q 2490 2336 2349 2534 
Q 2208 2733 1901 2733 
Q 1664 2733 1475 2611 
Q 1286 2490 1050 2253 
L 1050 0 
L 525 0 
z
" transform="scale(0.015625)"/>
       <path id="SourceSans3-Regular-64" d="M 1587 -77 
Q 1005 -77 653 348 
Q 301 774 301 1549 
Q 301 2054 489 2422 
Q 678 2790 988 2988 
Q 1299 3187 1651 3187 
Q 1920 3187 2118 3091 
Q 2317 2995 2522 2829 
L 2496 3360 
L 2496 4557 
L 3027 4557 
L 3027 0 
L 2592 0 
L 2547 365 
L 2528 365 
Q 2349 186 2105 54 
Q 1862 -77 1587 -77 
z
M 1702 365 
Q 2112 365 2496 794 
L 2496 2419 
Q 2298 2598 2115 2672 
Q 1933 2746 1741 2746 
Q 1491 2746 1289 2595 
Q 1088 2445 966 2179 
Q 845 1914 845 1555 
Q 845 998 1069 681 
Q 1293 365 1702 365 
z
" transform="scale(0.015625)"/>
       <path id="SourceSans3-Regular-28" d="M 1370 -1126 
Q 973 -480 749 227 
Q 525 934 525 1779 
Q 525 2624 749 3334 
Q 973 4045 1370 4685 
L 1696 4531 
Q 1325 3923 1142 3216 
Q 960 2509 960 1779 
Q 960 1050 1142 342 
Q 1325 -365 1696 -973 
L 1370 -1126 
z
" transform="scale(0.015625)"/>
       <path id="SourceSans3-Regular-6d" d="M 525 0 
L 525 3110 
L 960 3110 
L 1005 2662 
L 1024 2662 
Q 1229 2886 1472 3036 
Q 1715 3187 1990 3187 
Q 2349 3187 2550 3030 
Q 2752 2874 2848 2592 
Q 3091 2854 3340 3020 
Q 3590 3187 3872 3187 
Q 4352 3187 4585 2876 
Q 4819 2566 4819 1971 
L 4819 0 
L 4294 0 
L 4294 1901 
Q 4294 2336 4153 2534 
Q 4013 2733 3718 2733 
Q 3373 2733 2938 2253 
L 2938 0 
L 2413 0 
L 2413 1901 
Q 2413 2336 2272 2534 
Q 2131 2733 1830 2733 
Q 1485 2733 1050 2253 
L 1050 0 
L 525 0 
z
" transform="scale(0.015625)"/>
       <path id="SourceSans3-Regular-6c" d="M 1082 -58 
Q 787 -58 656 124 
Q 525 307 525 640 
L 525 4557 
L 1050 4557 
L 1050 602 
Q 1050 480 1094 429 
Q 1139 378 1203 378 
Q 1229 378 1251 381 
Q 1274 384 1312 390 
L 1382 -6 
Q 1267 -58 1082 -58 
z
" transform="scale(0.015625)"/>
       <path id="SourceSans3-Regular-67" d="M 1574 -1434 
Q 1005 -1434 646 -1216 
Q 288 -998 288 -595 
Q 288 -397 409 -214 
Q 531 -32 742 109 
L 742 134 
Q 627 205 547 333 
Q 467 461 467 640 
Q 467 838 576 985 
Q 685 1133 806 1216 
L 806 1242 
Q 653 1370 528 1587 
Q 403 1805 403 2080 
Q 403 2419 563 2668 
Q 723 2918 992 3052 
Q 1261 3187 1574 3187 
Q 1702 3187 1817 3164 
Q 1933 3142 2016 3110 
L 3098 3110 
L 3098 2707 
L 2451 2707 
L 2451 2682 
Q 2560 2579 2637 2425 
Q 2714 2272 2714 2061 
Q 2714 1734 2560 1491 
Q 2406 1248 2150 1117 
Q 1894 986 1574 986 
Q 1325 986 1107 1094 
Q 1024 1024 966 937 
Q 909 851 909 723 
Q 909 576 1027 480 
Q 1146 384 1459 384 
L 2061 384 
Q 2605 384 2877 208 
Q 3149 32 3149 -358 
Q 3149 -646 2957 -889 
Q 2765 -1133 2413 -1283 
Q 2061 -1434 1574 -1434 
z
M 1574 1338 
Q 1843 1338 2038 1539 
Q 2234 1741 2234 2080 
Q 2234 2419 2042 2611 
Q 1850 2803 1574 2803 
Q 1299 2803 1107 2611 
Q 915 2419 915 2080 
Q 915 1741 1110 1539 
Q 1306 1338 1574 1338 
z
M 1651 -1069 
Q 2099 -1069 2368 -873 
Q 2637 -678 2637 -435 
Q 2637 -218 2473 -134 
Q 2310 -51 2010 -51 
L 1472 -51 
Q 1382 -51 1276 -38 
Q 1171 -26 1069 0 
Q 902 -122 825 -256 
Q 749 -390 749 -525 
Q 749 -774 989 -921 
Q 1229 -1069 1651 -1069 
z
" transform="scale(0.015625)"/>
       <path id="SourceSans3-Regular-44" d="M 576 0 
L 576 4198 
L 1626 4198 
Q 2598 4198 3104 3657 
Q 3610 3117 3610 2118 
Q 3610 1114 3107 557 
Q 2605 0 1651 0 
L 576 0 
z
M 1107 435 
L 1587 435 
Q 2323 435 2691 880 
Q 3059 1325 3059 2118 
Q 3059 2912 2691 3337 
Q 2323 3763 1587 3763 
L 1107 3763 
L 1107 435 
z
" transform="scale(0.015625)"/>
       <path id="SourceSans3-Regular-57" d="M 1018 0 
L 147 4198 
L 717 4198 
L 1146 1914 
Q 1210 1574 1267 1235 
Q 1325 896 1376 538 
L 1402 538 
Q 1472 896 1542 1238 
Q 1613 1581 1690 1914 
L 2259 4198 
L 2797 4198 
L 3347 1914 
Q 3424 1581 3501 1238 
Q 3578 896 3648 538 
L 3674 538 
Q 3725 896 3779 1238 
Q 3834 1581 3898 1914 
L 4339 4198 
L 4883 4198 
L 4006 0 
L 3322 0 
L 2720 2522 
Q 2669 2765 2624 2998 
Q 2579 3232 2528 3507 
L 2502 3507 
Q 2464 3232 2416 2998 
Q 2368 2765 2317 2522 
L 1702 0 
L 1018 0 
z
" transform="scale(0.015625)"/>
       <path id="DejaVuSans-2212" d="M 678 2272 
L 4684 2272 
L 4684 1741 
L 678 1741 
L 678 2272 
z
" transform="scale(0.015625)"/>
       <path id="DejaVuSans-31" d="M 794 531 
L 1825 531 
L 1825 4091 
L 703 3866 
L 703 4441 
L 1819 4666 
L 2450 4666 
L 2450 531 
L 3481 531 
L 3481 0 
L 794 0 
L 794 531 
z
" transform="scale(0.015625)"/>
       <path id="SourceSans3-Regular-68" d="M 525 0 
L 525 4557 
L 1050 4557 
L 1050 3315 
L 1030 2675 
Q 1254 2886 1500 3036 
Q 1747 3187 2067 3187 
Q 2560 3187 2787 2876 
Q 3014 2566 3014 1971 
L 3014 0 
L 2490 0 
L 2490 1901 
Q 2490 2336 2349 2534 
Q 2208 2733 1901 2733 
Q 1664 2733 1475 2611 
Q 1286 2490 1050 2253 
L 1050 0 
L 525 0 
z
" transform="scale(0.015625)"/>
       <path id="SourceSans3-Regular-29" d="M 570 -1126 
L 243 -973 
Q 614 -365 796 342 
Q 979 1050 979 1779 
Q 979 2509 796 3216 
Q 614 3923 243 4531 
L 570 4685 
Q 966 4045 1190 3334 
Q 1414 2624 1414 1779 
Q 1414 934 1190 227 
Q 966 -480 570 -1126 
z
" transform="scale(0.015625)"/>
      </defs>
      <use xlink:href="#SourceSans3-Regular-4f" transform="translate(0 0.684375)"/>
      <use xlink:href="#DejaVuSans-32" transform="translate(67.357025 -15.721875) scale(0.7)"/>
      <use xlink:href="#SourceSans3-Regular-20" transform="translate(114.627533 0.684375)"/>
      <use xlink:href="#SourceSans3-Regular-75" transform="translate(134.627518 0.684375)"/>
      <use xlink:href="#SourceSans3-Regular-70" transform="translate(189.027512 0.684375)"/>
      <use xlink:href="#SourceSans3-Regular-74" transform="translate(244.527496 0.684375)"/>
      <use xlink:href="#SourceSans3-Regular-61" transform="translate(278.327484 0.684375)"/>
      <use xlink:href="#SourceSans3-Regular-6b" transform="translate(328.727478 0.684375)"/>
      <use xlink:href="#SourceSans3-Regular-65" transform="translate(378.227463 0.684375)"/>
      <use xlink:href="#SourceSans3-Regular-20" transform="translate(427.827454 0.684375)"/>
      <use xlink:href="#SourceSans3-Regular-62" transform="translate(447.827438 0.684375)"/>
      <use xlink:href="#SourceSans3-Regular-6f" transform="translate(503.127426 0.684375)"/>
      <use xlink:href="#SourceSans3-Regular-75" transform="translate(557.327423 0.684375)"/>
      <use xlink:href="#SourceSans3-Regular-6e" transform="translate(611.727417 0.684375)"/>
      <use xlink:href="#SourceSans3-Regular-64" transform="translate(666.427414 0.684375)"/>
      <use xlink:href="#SourceSans3-Regular-20" transform="translate(721.927399 0.684375)"/>
      <use xlink:href="#SourceSans3-Regular-28" transform="translate(741.927383 0.684375)"/>
      <use xlink:href="#SourceSans3-Regular-6d" transform="translate(772.227371 0.684375)"/>
      <use xlink:href="#SourceSans3-Regular-6d" transform="translate(855.127365 0.684375)"/>
      <use xlink:href="#SourceSans3-Regular-6f" transform="translate(938.027359 0.684375)"/>
      <use xlink:href="#SourceSans3-Regular-6c" transform="translate(992.227356 0.684375)"/>
      <use xlink:href="#SourceSans3-Regular-20" transform="translate(1017.727341 0.684375)"/>
      <use xlink:href="#SourceSans3-Regular-4f" transform="translate(1037.727325 0.684375)"/>
      <use xlink:href="#DejaVuSans-32" transform="translate(1105.084351 -15.721875) scale(0.7)"/>
      <use xlink:href="#SourceSans3-Regular-20" transform="translate(1152.354858 0.684375)"/>
      <use xlink:href="#SourceSans3-Regular-67" transform="translate(1172.354843 0.684375)"/>
      <use xlink:href="#SourceSans3-Regular-44" transform="translate(1222.754837 0.684375)"/>
      <use xlink:href="#SourceSans3-Regular-57" transform="translate(1284.254822 0.684375)"/>
      <use xlink:href="#DejaVuSans-2212" transform="translate(1363.811844 38.965625) scale(0.7)"/>
      <use xlink:href="#DejaVuSans-31" transform="translate(1422.464188 38.965625) scale(0.7)"/>
      <use xlink:href="#SourceSans3-Regular-20" transform="translate(1469.734695 0.684375)"/>
      <use xlink:href="#SourceSans3-Regular-68" transform="translate(1489.73468 0.684375)"/>
      <use xlink:href="#DejaVuSans-2212" transform="translate(1545.091705 38.965625) scale(0.7)"/>
      <use xlink:href="#DejaVuSans-31" transform="translate(1603.744049 38.965625) scale(0.7)"/>
      <use xlink:href="#SourceSans3-Regular-29" transform="translate(1651.014557 0.684375)"/>
     </g>
    </g>
   </g>
   <g id="matplotlib.axis_2">
    <g id="ytick_1">
     <g id="line2d_8">
      <defs>
       <path id="m68953079e2" d="M 0 0 
L -3.5 0 
" style="stroke: #808080; stroke-width: 0.8"/>
      </defs>
      <g>
       <use xlink:href="#m68953079e2" x="50.555" y="225.088408" style="fill: #808080; stroke: #808080; stroke-width: 0.8"/>
      </g>
     </g>
     <g id="text_8">
      <!-- −1.0 -->
      <g style="fill: #808080" transform="translate(22.673125 229.360595) scale(0.12 -0.12)">
       <defs>
        <path id="SourceSans3-Regular-2212" d="M 218 1914 
L 218 2310 
L 2963 2310 
L 2963 1914 
L 218 1914 
z
" transform="scale(0.015625)"/>
        <path id="SourceSans3-Regular-2e" d="M 800 -77 
Q 640 -77 528 35 
Q 416 147 416 320 
Q 416 506 528 618 
Q 640 730 800 730 
Q 954 730 1066 618 
Q 1178 506 1178 320 
Q 1178 147 1066 35 
Q 954 -77 800 -77 
z
" transform="scale(0.015625)"/>
       </defs>
       <use xlink:href="#SourceSans3-Regular-2212"/>
       <use xlink:href="#SourceSans3-Regular-31" transform="translate(49.699997 0)"/>
       <use xlink:href="#SourceSans3-Regular-2e" transform="translate(99.399994 0)"/>
       <use xlink:href="#SourceSans3-Regular-30" transform="translate(124.299988 0)"/>
      </g>
     </g>
    </g>
    <g id="ytick_2">
     <g id="line2d_9">
      <g>
       <use xlink:href="#m68953079e2" x="50.555" y="178.26936" style="fill: #808080; stroke: #808080; stroke-width: 0.8"/>
      </g>
     </g>
     <g id="text_9">
      <!-- −0.5 -->
      <g style="fill: #808080" transform="translate(22.673125 182.541548) scale(0.12 -0.12)">
       <use xlink:href="#SourceSans3-Regular-2212"/>
       <use xlink:href="#SourceSans3-Regular-30" transform="translate(49.699997 0)"/>
       <use xlink:href="#SourceSans3-Regular-2e" transform="translate(99.399994 0)"/>
       <use xlink:href="#SourceSans3-Regular-35" transform="translate(124.299988 0)"/>
      </g>
     </g>
    </g>
    <g id="ytick_3">
     <g id="line2d_10">
      <g>
       <use xlink:href="#m68953079e2" x="50.555" y="131.450312" style="fill: #808080; stroke: #808080; stroke-width: 0.8"/>
      </g>
     </g>
     <g id="text_10">
      <!-- 0.0 -->
      <g style="fill: #808080" transform="translate(28.6375 135.7225) scale(0.12 -0.12)">
       <use xlink:href="#SourceSans3-Regular-30"/>
       <use xlink:href="#SourceSans3-Regular-2e" transform="translate(49.699997 0)"/>
       <use xlink:href="#SourceSans3-Regular-30" transform="translate(74.599991 0)"/>
      </g>
     </g>
    </g>
    <g id="ytick_4">
     <g id="line2d_11">
      <g>
       <use xlink:href="#m68953079e2" x="50.555" y="84.631265" style="fill: #808080; stroke: #808080; stroke-width: 0.8"/>
      </g>
     </g>
     <g id="text_11">
      <!-- 0.5 -->
      <g style="fill: #808080" transform="translate(28.6375 88.903452) scale(0.12 -0.12)">
       <use xlink:href="#SourceSans3-Regular-30"/>
       <use xlink:href="#SourceSans3-Regular-2e" transform="translate(49.699997 0)"/>
       <use xlink:href="#SourceSans3-Regular-35" transform="translate(74.599991 0)"/>
      </g>
     </g>
    </g>
    <g id="ytick_5">
     <g id="line2d_12">
      <g>
       <use xlink:href="#m68953079e2" x="50.555" y="37.812217" style="fill: #808080; stroke: #808080; stroke-width: 0.8"/>
      </g>
     </g>
     <g id="text_12">
      <!-- 1.0 -->
      <g style="fill: #808080" transform="translate(28.6375 42.084405) scale(0.12 -0.12)">
       <use xlink:href="#SourceSans3-Regular-31"/>
       <use xlink:href="#SourceSans3-Regular-2e" transform="translate(49.699997 0)"/>
       <use xlink:href="#SourceSans3-Regular-30" transform="translate(74.599991 0)"/>
      </g>
     </g>
    </g>
    <g id="text_13">
     <!-- Pearson r (growth rate vs. CUE) -->
     <g style="fill: #808080" transform="translate(15.984375 209.03875) rotate(-90) scale(0.12 -0.12)">
      <defs>
       <path id="SourceSans3-Regular-50" d="M 576 0 
L 576 4198 
L 1773 4198 
Q 2246 4198 2598 4083 
Q 2950 3968 3148 3696 
Q 3347 3424 3347 2963 
Q 3347 2304 2918 1984 
Q 2490 1664 1798 1664 
L 1107 1664 
L 1107 0 
L 576 0 
z
M 1107 2099 
L 1734 2099 
Q 2285 2099 2550 2307 
Q 2816 2515 2816 2963 
Q 2816 3418 2537 3594 
Q 2259 3770 1709 3770 
L 1107 3770 
L 1107 2099 
z
" transform="scale(0.015625)"/>
       <path id="SourceSans3-Regular-72" d="M 525 0 
L 525 3110 
L 960 3110 
L 1005 2547 
L 1024 2547 
Q 1178 2842 1408 3014 
Q 1638 3187 1907 3187 
Q 2093 3187 2240 3123 
L 2125 2675 
Q 2054 2694 1993 2704 
Q 1933 2714 1837 2714 
Q 1638 2714 1424 2554 
Q 1210 2394 1050 1997 
L 1050 0 
L 525 0 
z
" transform="scale(0.015625)"/>
       <path id="SourceSans3-Regular-73" d="M 1338 -77 
Q 998 -77 697 41 
Q 397 160 179 371 
L 422 678 
Q 627 512 848 422 
Q 1069 333 1357 333 
Q 1664 333 1817 477 
Q 1971 621 1971 819 
Q 1971 979 1868 1084 
Q 1766 1190 1606 1264 
Q 1446 1338 1267 1402 
Q 1037 1485 825 1597 
Q 614 1709 483 1878 
Q 352 2048 352 2304 
Q 352 2682 637 2934 
Q 922 3187 1427 3187 
Q 1715 3187 1964 3088 
Q 2214 2989 2394 2835 
L 2150 2534 
Q 1990 2650 1814 2714 
Q 1638 2778 1427 2778 
Q 1133 2778 995 2643 
Q 858 2509 858 2330 
Q 858 2118 1043 2009 
Q 1229 1901 1517 1798 
Q 1760 1715 1981 1600 
Q 2202 1485 2339 1309 
Q 2477 1133 2477 851 
Q 2477 602 2345 390 
Q 2214 179 1961 51 
Q 1709 -77 1338 -77 
z
" transform="scale(0.015625)"/>
       <path id="SourceSans3-Regular-77" d="M 1018 0 
L 154 3110 
L 704 3110 
L 1158 1312 
Q 1210 1101 1254 889 
Q 1299 678 1338 429 
L 1363 429 
Q 1414 678 1462 889 
Q 1510 1101 1562 1312 
L 2022 3110 
L 2598 3110 
L 3066 1312 
Q 3123 1101 3174 889 
Q 3226 678 3270 429 
L 3296 429 
Q 3347 678 3392 889 
Q 3437 1101 3482 1312 
L 3936 3110 
L 4448 3110 
L 3610 0 
L 2925 0 
L 2509 1664 
Q 2451 1882 2406 2096 
Q 2362 2310 2310 2586 
L 2285 2586 
Q 2240 2310 2192 2092 
Q 2144 1875 2086 1664 
L 1670 0 
L 1018 0 
z
" transform="scale(0.015625)"/>
       <path id="SourceSans3-Regular-76" d="M 1197 0 
L 77 3110 
L 621 3110 
L 1210 1344 
Q 1280 1114 1353 883 
Q 1427 653 1498 429 
L 1523 429 
Q 1594 653 1667 883 
Q 1741 1114 1805 1344 
L 2394 3110 
L 2912 3110 
L 1811 0 
L 1197 0 
z
" transform="scale(0.015625)"/>
       <path id="SourceSans3-Regular-43" d="M 2170 -77 
Q 1645 -77 1229 182 
Q 813 442 573 928 
Q 333 1414 333 2099 
Q 333 2778 576 3264 
Q 819 3750 1241 4012 
Q 1664 4275 2195 4275 
Q 2573 4275 2870 4124 
Q 3168 3974 3347 3757 
L 3059 3430 
Q 2893 3610 2678 3709 
Q 2464 3808 2202 3808 
Q 1811 3808 1513 3600 
Q 1216 3392 1049 3014 
Q 883 2637 883 2112 
Q 883 1587 1046 1200 
Q 1210 813 1507 601 
Q 1805 390 2208 390 
Q 2502 390 2736 502 
Q 2970 614 3168 832 
L 3443 525 
Q 3187 237 2883 80 
Q 2579 -77 2170 -77 
z
" transform="scale(0.015625)"/>
       <path id="SourceSans3-Regular-55" d="M 2067 -77 
Q 1638 -77 1296 92 
Q 954 262 755 652 
Q 557 1043 557 1709 
L 557 4198 
L 1088 4198 
L 1088 1696 
Q 1088 1203 1219 915 
Q 1350 627 1571 508 
Q 1792 390 2067 390 
Q 2349 390 2573 508 
Q 2797 627 2928 915 
Q 3059 1203 3059 1696 
L 3059 4198 
L 3571 4198 
L 3571 1709 
Q 3571 1043 3372 652 
Q 3174 262 2835 92 
Q 2496 -77 2067 -77 
z
" transform="scale(0.015625)"/>
       <path id="SourceSans3-Regular-45" d="M 576 0 
L 576 4198 
L 2995 4198 
L 2995 3750 
L 1107 3750 
L 1107 2432 
L 2701 2432 
L 2701 1978 
L 1107 1978 
L 1107 454 
L 3059 454 
L 3059 0 
L 576 0 
z
" transform="scale(0.015625)"/>
      </defs>
      <use xlink:href="#SourceSans3-Regular-50"/>
      <use xlink:href="#SourceSans3-Regular-65" transform="translate(56.599991 0)"/>
      <use xlink:href="#SourceSans3-Regular-61" transform="translate(106.199982 0)"/>
      <use xlink:href="#SourceSans3-Regular-72" transform="translate(156.599976 0)"/>
      <use xlink:href="#SourceSans3-Regular-73" transform="translate(191.299973 0)"/>
      <use xlink:href="#SourceSans3-Regular-6f" transform="translate(233.199966 0)"/>
      <use xlink:href="#SourceSans3-Regular-6e" transform="translate(287.399963 0)"/>
      <use xlink:href="#SourceSans3-Regular-20" transform="translate(342.09996 0)"/>
      <use xlink:href="#SourceSans3-Regular-72" transform="translate(362.099945 0)"/>
      <use xlink:href="#SourceSans3-Regular-20" transform="translate(396.799942 0)"/>
      <use xlink:href="#SourceSans3-Regular-28" transform="translate(416.799927 0)"/>
      <use xlink:href="#SourceSans3-Regular-67" transform="translate(447.099915 0)"/>
      <use xlink:href="#SourceSans3-Regular-72" transform="translate(497.499908 0)"/>
      <use xlink:href="#SourceSans3-Regular-6f" transform="translate(532.199905 0)"/>
      <use xlink:href="#SourceSans3-Regular-77" transform="translate(586.399902 0)"/>
      <use xlink:href="#SourceSans3-Regular-74" transform="translate(658.299896 0)"/>
      <use xlink:href="#SourceSans3-Regular-68" transform="translate(692.099884 0)"/>
      <use xlink:href="#SourceSans3-Regular-20" transform="translate(746.499878 0)"/>
      <use xlink:href="#SourceSans3-Regular-72" transform="translate(766.499863 0)"/>
      <use xlink:href="#SourceSans3-Regular-61" transform="translate(801.19986 0)"/>
      <use xlink:href="#SourceSans3-Regular-74" transform="translate(851.599854 0)"/>
      <use xlink:href="#SourceSans3-Regular-65" transform="translate(885.399841 0)"/>
      <use xlink:href="#SourceSans3-Regular-20" transform="translate(934.999832 0)"/>
      <use xlink:href="#SourceSans3-Regular-76" transform="translate(954.999817 0)"/>
      <use xlink:href="#SourceSans3-Regular-73" transform="translate(1001.699814 0)"/>
      <use xlink:href="#SourceSans3-Regular-2e" transform="translate(1043.599808 0)"/>
      <use xlink:href="#SourceSans3-Regular-20" transform="translate(1068.499802 0)"/>
      <use xlink:href="#SourceSans3-Regular-43" transform="translate(1088.499786 0)"/>
      <use xlink:href="#SourceSans3-Regular-55" transform="translate(1145.599777 0)"/>
      <use xlink:href="#SourceSans3-Regular-45" transform="translate(1210.099762 0)"/>
      <use xlink:href="#SourceSans3-Regular-29" transform="translate(1262.799759 0)"/>
     </g>
    </g>
   </g>
   <g id="FillBetweenPolyCollection_1">
    <defs>
     <path id="m53060456cb" d="M 65.162216 -178.399762 
L 65.162216 -104.795544 
L 118.821376 -133.88389 
L 178.442666 -133.95045 
L 238.063955 -205.38257 
L 297.685245 -234.390636 
L 357.306534 -234.720274 
L 357.306534 -234.722181 
L 357.306534 -234.722181 
L 297.685245 -234.722028 
L 238.063955 -232.795439 
L 178.442666 -206.31471 
L 118.821376 -207.360023 
L 65.162216 -178.399762 
z
"/>
    </defs>
    <g clip-path="url(#p8ddd74eabe)">
     <use xlink:href="#m53060456cb" x="0" y="272.534688" style="fill: #5b8c8f; fill-opacity: 0.18"/>
    </g>
   </g>
   <g id="patch_3">
    <path d="M 50.555 229.770312 
L 50.555 33.130312 
" style="fill: none; stroke: #808080; stroke-width: 0.8; stroke-linejoin: miter; stroke-linecap: square"/>
   </g>
   <g id="patch_4">
    <path d="M 50.555 229.770313 
L 371.91375 229.770313 
" style="fill: none; stroke: #808080; stroke-width: 0.8; stroke-linejoin: miter; stroke-linecap: square"/>
   </g>
   <g id="line2d_13">
    <path d="M 65.162216 130.396835 
L 118.821376 97.544264 
L 178.442666 98.157332 
L 238.063955 53.532244 
L 297.685245 37.929411 
L 357.306534 37.813238 
" clip-path="url(#p8ddd74eabe)" style="fill: none; stroke: #5b8c8f; stroke-width: 2; stroke-linecap: square"/>
   </g>
   <g id="text_14">
    <!-- n = 19 -->
    <g style="fill: #808080" transform="translate(56.628778 147.381054) scale(0.07 -0.07)">
     <defs>
      <path id="SourceSans3-Regular-3d" d="M 218 2618 
L 218 3014 
L 2963 3014 
L 2963 2618 
L 218 2618 
z
M 218 1210 
L 218 1606 
L 2963 1606 
L 2963 1210 
L 218 1210 
z
" transform="scale(0.015625)"/>
      <path id="SourceSans3-Regular-39" d="M 749 2848 
Q 749 2451 937 2217 
Q 1126 1984 1504 1984 
Q 1709 1984 1936 2112 
Q 2163 2240 2362 2528 
Q 2310 3123 2080 3433 
Q 1850 3744 1459 3744 
Q 1165 3744 957 3497 
Q 749 3251 749 2848 
z
M 1312 -77 
Q 986 -77 739 48 
Q 493 173 326 352 
L 621 685 
Q 749 538 925 448 
Q 1101 358 1293 358 
Q 1581 358 1824 524 
Q 2067 691 2217 1075 
Q 2368 1459 2374 2112 
Q 2182 1869 1926 1728 
Q 1670 1587 1414 1587 
Q 890 1587 573 1904 
Q 256 2221 256 2848 
Q 256 3238 422 3532 
Q 589 3827 861 3993 
Q 1133 4160 1459 4160 
Q 1862 4160 2182 3942 
Q 2502 3725 2684 3289 
Q 2867 2854 2867 2195 
Q 2867 1376 2646 877 
Q 2426 378 2074 150 
Q 1722 -77 1312 -77 
z
" transform="scale(0.015625)"/>
     </defs>
     <use xlink:href="#SourceSans3-Regular-6e"/>
     <use xlink:href="#SourceSans3-Regular-20" transform="translate(54.699997 0)"/>
     <use xlink:href="#SourceSans3-Regular-3d" transform="translate(74.699982 0)"/>
     <use xlink:href="#SourceSans3-Regular-20" transform="translate(124.399979 0)"/>
     <use xlink:href="#SourceSans3-Regular-31" transform="translate(144.399963 0)"/>
     <use xlink:href="#SourceSans3-Regular-39" transform="translate(194.09996 0)"/>
    </g>
   </g>
   <g id="text_15">
    <!-- Growth-CUE correlation across 22 substrates -->
    <g style="fill: #808080" transform="translate(118.036719 14.320312) scale(0.1 -0.1)">
     <defs>
      <path id="SourceSans3-Regular-47" d="M 2227 -77 
Q 1677 -77 1248 182 
Q 819 442 576 928 
Q 333 1414 333 2099 
Q 333 2778 582 3264 
Q 832 3750 1267 4012 
Q 1702 4275 2259 4275 
Q 2694 4275 2992 4115 
Q 3290 3955 3469 3757 
L 3174 3424 
Q 3014 3590 2803 3699 
Q 2592 3808 2272 3808 
Q 1850 3808 1536 3600 
Q 1222 3392 1052 3014 
Q 883 2637 883 2112 
Q 883 1318 1244 854 
Q 1606 390 2278 390 
Q 2502 390 2707 457 
Q 2912 525 3034 640 
L 3034 1734 
L 2144 1734 
L 2144 2176 
L 3520 2176 
L 3520 410 
Q 3322 198 2986 60 
Q 2650 -77 2227 -77 
z
" transform="scale(0.015625)"/>
      <path id="SourceSans3-Regular-2d" d="M 262 1402 
L 262 1805 
L 1734 1805 
L 1734 1402 
L 262 1402 
z
" transform="scale(0.015625)"/>
      <path id="SourceSans3-Regular-63" d="M 1760 -77 
Q 1344 -77 1011 115 
Q 678 307 486 672 
Q 294 1037 294 1549 
Q 294 2074 502 2438 
Q 710 2803 1052 2995 
Q 1395 3187 1792 3187 
Q 2099 3187 2320 3084 
Q 2541 2982 2701 2822 
L 2438 2502 
Q 2317 2611 2166 2681 
Q 2016 2752 1811 2752 
Q 1536 2752 1315 2601 
Q 1094 2451 966 2179 
Q 838 1907 838 1549 
Q 838 1018 1107 688 
Q 1376 358 1805 358 
Q 2016 358 2201 441 
Q 2387 525 2528 653 
L 2758 333 
Q 2566 147 2313 35 
Q 2061 -77 1760 -77 
z
" transform="scale(0.015625)"/>
      <path id="SourceSans3-Regular-69" d="M 525 0 
L 525 3110 
L 1050 3110 
L 1050 0 
L 525 0 
z
M 784 3750 
Q 630 3750 531 3843 
Q 432 3936 432 4096 
Q 432 4250 531 4346 
Q 630 4442 784 4442 
Q 938 4442 1037 4346 
Q 1136 4250 1136 4096 
Q 1136 3936 1037 3843 
Q 938 3750 784 3750 
z
" transform="scale(0.015625)"/>
     </defs>
     <use xlink:href="#SourceSans3-Regular-47"/>
     <use xlink:href="#SourceSans3-Regular-72" transform="translate(61.699997 0)"/>
     <use xlink:href="#SourceSans3-Regular-6f" transform="translate(96.399994 0)"/>
     <use xlink:href="#SourceSans3-Regular-77" transform="translate(150.599991 0)"/>
     <use xlink:href="#SourceSans3-Regular-74" transform="translate(222.499985 0)"/>
     <use xlink:href="#SourceSans3-Regular-68" transform="translate(256.299973 0)"/>
     <use xlink:href="#SourceSans3-Regular-2d" transform="translate(310.699966 0)"/>
     <use xlink:href="#SourceSans3-Regular-43" transform="translate(341.799957 0)"/>
     <use xlink:href="#SourceSans3-Regular-55" transform="translate(398.899948 0)"/>
     <use xlink:href="#SourceSans3-Regular-45" transform="translate(463.399933 0)"/>
     <use xlink:href="#SourceSans3-Regular-20" transform="translate(516.09993 0)"/>
     <use xlink:href="#SourceSans3-Regular-63" transform="translate(536.099915 0)"/>
     <use xlink:href="#SourceSans3-Regular-6f" transform="translate(581.699905 0)"/>
     <use xlink:href="#SourceSans3-Regular-72" transform="translate(635.899902 0)"/>
     <use xlink:href="#SourceSans3-Regular-72" transform="translate(670.599899 0)"/>
     <use xlink:href="#SourceSans3-Regular-65" transform="translate(705.299896 0)"/>
     <use xlink:href="#SourceSans3-Regular-6c" transform="translate(754.899887 0)"/>
     <use xlink:href="#SourceSans3-Regular-61" transform="translate(780.399872 0)"/>
     <use xlink:href="#SourceSans3-Regular-74" transform="translate(830.799866 0)"/>
     <use xlink:href="#SourceSans3-Regular-69" transform="translate(864.599854 0)"/>
     <use xlink:href="#SourceSans3-Regular-6f" transform="translate(889.199844 0)"/>
     <use xlink:href="#SourceSans3-Regular-6e" transform="translate(943.399841 0)"/>
     <use xlink:href="#SourceSans3-Regular-20" transform="translate(998.099838 0)"/>
     <use xlink:href="#SourceSans3-Regular-61" transform="translate(1018.099823 0)"/>
     <use xlink:href="#SourceSans3-Regular-63" transform="translate(1068.499817 0)"/>
     <use xlink:href="#SourceSans3-Regular-72" transform="translate(1114.099808 0)"/>
     <use xlink:href="#SourceSans3-Regular-6f" transform="translate(1148.799805 0)"/>
     <use xlink:href="#SourceSans3-Regular-73" transform="translate(1202.999802 0)"/>
     <use xlink:href="#SourceSans3-Regular-73" transform="translate(1244.899796 0)"/>
     <use xlink:href="#SourceSans3-Regular-20" transform="translate(1286.799789 0)"/>
     <use xlink:href="#SourceSans3-Regular-32" transform="translate(1306.799774 0)"/>
     <use xlink:href="#SourceSans3-Regular-32" transform="translate(1356.499771 0)"/>
     <use xlink:href="#SourceSans3-Regular-20" transform="translate(1406.199768 0)"/>
     <use xlink:href="#SourceSans3-Regular-73" transform="translate(1426.199753 0)"/>
     <use xlink:href="#SourceSans3-Regular-75" transform="translate(1468.099747 0)"/>
     <use xlink:href="#SourceSans3-Regular-62" transform="translate(1522.499741 0)"/>
     <use xlink:href="#SourceSans3-Regular-73" transform="translate(1577.799728 0)"/>
     <use xlink:href="#SourceSans3-Regular-74" transform="translate(1619.699722 0)"/>
     <use xlink:href="#SourceSans3-Regular-72" transform="translate(1653.49971 0)"/>
     <use xlink:href="#SourceSans3-Regular-61" transform="translate(1688.199707 0)"/>
     <use xlink:href="#SourceSans3-Regular-74" transform="translate(1738.599701 0)"/>
     <use xlink:href="#SourceSans3-Regular-65" transform="translate(1772.399689 0)"/>
     <use xlink:href="#SourceSans3-Regular-73" transform="translate(1821.99968 0)"/>
    </g>
    <!-- Same O$_2$ bound for every substrate -->
    <g style="fill: #808080" transform="translate(137.884375 25.130312) scale(0.1 -0.1)">
     <defs>
      <path id="SourceSans3-Regular-53" d="M 1741 -77 
Q 1293 -77 918 89 
Q 544 256 269 550 
L 570 896 
Q 794 659 1104 524 
Q 1414 390 1747 390 
Q 2163 390 2393 579 
Q 2624 768 2624 1075 
Q 2624 1293 2531 1421 
Q 2438 1549 2281 1638 
Q 2125 1728 1926 1818 
L 1325 2080 
Q 1126 2170 928 2304 
Q 730 2438 602 2649 
Q 474 2861 474 3162 
Q 474 3482 643 3734 
Q 813 3987 1110 4131 
Q 1408 4275 1792 4275 
Q 2176 4275 2496 4134 
Q 2816 3994 3034 3770 
L 2746 3424 
Q 2547 3597 2310 3702 
Q 2074 3808 1792 3808 
Q 1440 3808 1225 3641 
Q 1011 3475 1011 3194 
Q 1011 2995 1116 2864 
Q 1222 2733 1382 2649 
Q 1542 2566 1709 2496 
L 2304 2240 
Q 2682 2080 2925 1833 
Q 3168 1587 3168 1120 
Q 3168 787 2995 515 
Q 2822 243 2505 83 
Q 2189 -77 1741 -77 
z
" transform="scale(0.015625)"/>
      <path id="SourceSans3-Regular-66" d="M 614 0 
L 614 2682 
L 154 2682 
L 154 3078 
L 614 3110 
L 614 3603 
Q 614 4077 835 4355 
Q 1056 4634 1523 4634 
Q 1670 4634 1804 4605 
Q 1939 4576 2042 4531 
L 1926 4147 
Q 1734 4205 1574 4205 
Q 1139 4205 1139 3603 
L 1139 3110 
L 1798 3110 
L 1798 2682 
L 1139 2682 
L 1139 0 
L 614 0 
z
" transform="scale(0.015625)"/>
      <path id="SourceSans3-Regular-79" d="M 576 -1338 
Q 474 -1338 381 -1318 
Q 288 -1299 211 -1274 
L 326 -864 
Q 442 -902 550 -902 
Q 813 -902 985 -713 
Q 1158 -525 1254 -237 
L 1325 -6 
L 77 3110 
L 621 3110 
L 1254 1389 
Q 1325 1190 1405 960 
Q 1485 730 1555 512 
L 1581 512 
Q 1651 723 1715 953 
Q 1779 1184 1843 1389 
L 2400 3110 
L 2912 3110 
L 1741 -256 
Q 1632 -563 1481 -806 
Q 1331 -1050 1110 -1194 
Q 890 -1338 576 -1338 
z
" transform="scale(0.015625)"/>
     </defs>
     <use xlink:href="#SourceSans3-Regular-53" transform="translate(0 0.59375)"/>
     <use xlink:href="#SourceSans3-Regular-61" transform="translate(53.399994 0.59375)"/>
     <use xlink:href="#SourceSans3-Regular-6d" transform="translate(103.799988 0.59375)"/>
     <use xlink:href="#SourceSans3-Regular-65" transform="translate(186.699982 0.59375)"/>
     <use xlink:href="#SourceSans3-Regular-20" transform="translate(236.299973 0.59375)"/>
     <use xlink:href="#SourceSans3-Regular-4f" transform="translate(256.299957 0.59375)"/>
     <use xlink:href="#DejaVuSans-32" transform="translate(323.656982 -15.8125) scale(0.7)"/>
     <use xlink:href="#SourceSans3-Regular-20" transform="translate(370.92749 0.59375)"/>
     <use xlink:href="#SourceSans3-Regular-62" transform="translate(390.927475 0.59375)"/>
     <use xlink:href="#SourceSans3-Regular-6f" transform="translate(446.227463 0.59375)"/>
     <use xlink:href="#SourceSans3-Regular-75" transform="translate(500.42746 0.59375)"/>
     <use xlink:href="#SourceSans3-Regular-6e" transform="translate(554.827454 0.59375)"/>
     <use xlink:href="#SourceSans3-Regular-64" transform="translate(609.527451 0.59375)"/>
     <use xlink:href="#SourceSans3-Regular-20" transform="translate(665.027435 0.59375)"/>
     <use xlink:href="#SourceSans3-Regular-66" transform="translate(685.02742 0.59375)"/>
     <use xlink:href="#SourceSans3-Regular-6f" transform="translate(714.227417 0.59375)"/>
     <use xlink:href="#SourceSans3-Regular-72" transform="translate(768.427414 0.59375)"/>
     <use xlink:href="#SourceSans3-Regular-20" transform="translate(803.127411 0.59375)"/>
     <use xlink:href="#SourceSans3-Regular-65" transform="translate(823.127396 0.59375)"/>
     <use xlink:href="#SourceSans3-Regular-76" transform="translate(872.727386 0.59375)"/>
     <use xlink:href="#SourceSans3-Regular-65" transform="translate(919.427383 0.59375)"/>
     <use xlink:href="#SourceSans3-Regular-72" transform="translate(969.027374 0.59375)"/>
     <use xlink:href="#SourceSans3-Regular-79" transform="translate(1003.727371 0.59375)"/>
     <use xlink:href="#SourceSans3-Regular-20" transform="translate(1050.427368 0.59375)"/>
     <use xlink:href="#SourceSans3-Regular-73" transform="translate(1070.427353 0.59375)"/>
     <use xlink:href="#SourceSans3-Regular-75" transform="translate(1112.327347 0.59375)"/>
     <use xlink:href="#SourceSans3-Regular-62" transform="translate(1166.727341 0.59375)"/>
     <use xlink:href="#SourceSans3-Regular-73" transform="translate(1222.027328 0.59375)"/>
     <use xlink:href="#SourceSans3-Regular-74" transform="translate(1263.927322 0.59375)"/>
     <use xlink:href="#SourceSans3-Regular-72" transform="translate(1297.72731 0.59375)"/>
     <use xlink:href="#SourceSans3-Regular-61" transform="translate(1332.427307 0.59375)"/>
     <use xlink:href="#SourceSans3-Regular-74" transform="translate(1382.827301 0.59375)"/>
     <use xlink:href="#SourceSans3-Regular-65" transform="translate(1416.627289 0.59375)"/>
    </g>
   </g>
   <g id="PathCollection_1">
    <defs>
     <path id="mcc194b3bbd" d="M 0 3.354102 
C 0.889518 3.354102 1.742724 3.000693 2.371708 2.371708 
C 3.000693 1.742724 3.354102 0.889518 3.354102 0 
C 3.354102 -0.889518 3.000693 -1.742724 2.371708 -2.371708 
C 1.742724 -3.000693 0.889518 -3.354102 0 -3.354102 
C -0.889518 -3.354102 -1.742724 -3.000693 -2.371708 -2.371708 
C -3.000693 -1.742724 -3.354102 -0.889518 -3.354102 0 
C -3.354102 0.889518 -3.000693 1.742724 -2.371708 2.371708 
C -1.742724 3.000693 -0.889518 3.354102 0 3.354102 
z
" style="stroke: #ffffff; stroke-width: 0.8"/>
    </defs>
    <g clip-path="url(#p8ddd74eabe)">
     <use xlink:href="#mcc194b3bbd" x="238.063955" y="53.532244" style="fill: #5b8c8f; stroke: #ffffff; stroke-width: 0.8"/>
     <use xlink:href="#mcc194b3bbd" x="297.685245" y="37.929411" style="fill: #5b8c8f; stroke: #ffffff; stroke-width: 0.8"/>
     <use xlink:href="#mcc194b3bbd" x="357.306534" y="37.813238" style="fill: #5b8c8f; stroke: #ffffff; stroke-width: 0.8"/>
    </g>
   </g>
   <g id="PathCollection_2">
    <defs>
     <path id="m700801f100" d="M 0 3.354102 
C 0.889518 3.354102 1.742724 3.000693 2.371708 2.371708 
C 3.000693 1.742724 3.354102 0.889518 3.354102 0 
C 3.354102 -0.889518 3.000693 -1.742724 2.371708 -2.371708 
C 1.742724 -3.000693 0.889518 -3.354102 0 -3.354102 
C -0.889518 -3.354102 -1.742724 -3.000693 -2.371708 -2.371708 
C -3.000693 -1.742724 -3.354102 -0.889518 -3.354102 0 
C -3.354102 0.889518 -3.000693 1.742724 -2.371708 2.371708 
C -1.742724 3.000693 -0.889518 3.354102 0 3.354102 
z
" style="stroke: #5b8c8f; stroke-width: 1.5"/>
    </defs>
    <g clip-path="url(#p8ddd74eabe)">
     <use xlink:href="#m700801f100" x="65.162216" y="130.396835" style="fill: #ffffff; stroke: #5b8c8f; stroke-width: 1.5"/>
     <use xlink:href="#m700801f100" x="118.821376" y="97.544264" style="fill: #ffffff; stroke: #5b8c8f; stroke-width: 1.5"/>
     <use xlink:href="#m700801f100" x="178.442666" y="98.157332" style="fill: #ffffff; stroke: #5b8c8f; stroke-width: 1.5"/>
    </g>
   </g>
   <g id="legend_1">
    <g id="line2d_14">
     <path d="M 57.755 195.257812 
L 65.755 195.257812 
L 73.755 195.257812 
" style="fill: none"/>
     <defs>
      <path id="m1a832087ea" d="M 0 3.5 
C 0.928211 3.5 1.81853 3.131218 2.474874 2.474874 
C 3.131218 1.81853 3.5 0.928211 3.5 0 
C 3.5 -0.928211 3.131218 -1.81853 2.474874 -2.474874 
C 1.81853 -3.131218 0.928211 -3.5 0 -3.5 
C -0.928211 -3.5 -1.81853 -3.131218 -2.474874 -2.474874 
C -3.131218 -1.81853 -3.5 -0.928211 -3.5 0 
C -3.5 0.928211 -3.131218 1.81853 -2.474874 2.474874 
C -1.81853 3.131218 -0.928211 3.5 0 3.5 
z
" style="stroke: #ffffff"/>
     </defs>
     <g>
      <use xlink:href="#m1a832087ea" x="65.755" y="195.257812" style="fill: #5b8c8f; stroke: #ffffff"/>
     </g>
    </g>
    <g id="text_16">
     <!-- p &lt; 0.05 -->
     <g style="fill: #808080" transform="translate(80.155 198.057813) scale(0.08 -0.08)">
      <defs>
       <path id="SourceSans3-Regular-3c" d="M 2963 838 
L 218 1914 
L 218 2336 
L 2963 3411 
L 2963 2957 
L 1613 2458 
L 755 2138 
L 755 2112 
L 1613 1792 
L 2963 1293 
L 2963 838 
z
" transform="scale(0.015625)"/>
      </defs>
      <use xlink:href="#SourceSans3-Regular-70"/>
      <use xlink:href="#SourceSans3-Regular-20" transform="translate(55.499985 0)"/>
      <use xlink:href="#SourceSans3-Regular-3c" transform="translate(75.499969 0)"/>
      <use xlink:href="#SourceSans3-Regular-20" transform="translate(125.199966 0)"/>
      <use xlink:href="#SourceSans3-Regular-30" transform="translate(145.199951 0)"/>
      <use xlink:href="#SourceSans3-Regular-2e" transform="translate(194.899948 0)"/>
      <use xlink:href="#SourceSans3-Regular-30" transform="translate(219.799942 0)"/>
      <use xlink:href="#SourceSans3-Regular-35" transform="translate(269.499939 0)"/>
     </g>
    </g>
    <g id="line2d_15">
     <path d="M 57.755 206.594063 
L 65.755 206.594063 
L 73.755 206.594063 
" style="fill: none"/>
     <defs>
      <path id="m605af21084" d="M 0 3.5 
C 0.928211 3.5 1.81853 3.131218 2.474874 2.474874 
C 3.131218 1.81853 3.5 0.928211 3.5 0 
C 3.5 -0.928211 3.131218 -1.81853 2.474874 -2.474874 
C 1.81853 -3.131218 0.928211 -3.5 0 -3.5 
C -0.928211 -3.5 -1.81853 -3.131218 -2.474874 -2.474874 
C -3.131218 -1.81853 -3.5 -0.928211 -3.5 0 
C -3.5 0.928211 -3.131218 1.81853 -2.474874 2.474874 
C -1.81853 3.131218 -0.928211 3.5 0 3.5 
z
" style="stroke: #5b8c8f"/>
     </defs>
     <g>
      <use xlink:href="#m605af21084" x="65.755" y="206.594063" style="fill: #ffffff; stroke: #5b8c8f"/>
     </g>
    </g>
    <g id="text_17">
     <!-- p $\geq$ 0.05 -->
     <g style="fill: #808080" transform="translate(80.155 209.394063) scale(0.08 -0.08)">
      <defs>
       <path id="DejaVuSans-2265" d="M 678 3175 
L 678 3725 
L 4684 2578 
L 4684 2047 
L 678 897 
L 678 1453 
L 3681 2309 
L 678 3175 
z
M 4684 531 
L 4684 0 
L 678 0 
L 678 531 
L 4684 531 
z
" transform="scale(0.015625)"/>
      </defs>
      <use xlink:href="#SourceSans3-Regular-70"/>
      <use xlink:href="#SourceSans3-Regular-20" transform="translate(55.499985 0)"/>
      <use xlink:href="#DejaVuSans-2265" transform="translate(94.982391 0)"/>
      <use xlink:href="#SourceSans3-Regular-20" transform="translate(198.253876 0)"/>
      <use xlink:href="#SourceSans3-Regular-30" transform="translate(218.25386 0)"/>
      <use xlink:href="#SourceSans3-Regular-2e" transform="translate(267.953857 0)"/>
      <use xlink:href="#SourceSans3-Regular-30" transform="translate(292.853851 0)"/>
      <use xlink:href="#SourceSans3-Regular-35" transform="translate(342.553848 0)"/>
     </g>
    </g>
    <g id="patch_5">
     <path d="M 57.755 220.930313 
L 73.755 220.930313 
L 73.755 215.330313 
L 57.755 215.330313 
z
" style="fill: #5b8c8f; opacity: 0.18"/>
    </g>
    <g id="text_18">
     <!-- 95% CI (bootstrap over substrates) -->
     <g style="fill: #808080" transform="translate(80.155 220.930313) scale(0.08 -0.08)">
      <defs>
       <path id="SourceSans3-Regular-25" d="M 1178 1651 
Q 749 1651 486 1996 
Q 224 2342 224 2982 
Q 224 3610 486 3955 
Q 749 4301 1178 4301 
Q 1606 4301 1868 3955 
Q 2131 3610 2131 2982 
Q 2131 2342 1868 1996 
Q 1606 1651 1178 1651 
z
M 1178 1978 
Q 1421 1978 1574 2230 
Q 1728 2483 1728 2982 
Q 1728 3482 1574 3728 
Q 1421 3974 1178 3974 
Q 928 3974 774 3728 
Q 621 3482 621 2982 
Q 621 2483 774 2230 
Q 928 1978 1178 1978 
z
M 1299 -77 
L 3616 4275 
L 3974 4275 
L 1658 -77 
L 1299 -77 
z
M 4106 -77 
Q 3677 -77 3414 268 
Q 3152 614 3152 1254 
Q 3152 1882 3414 2227 
Q 3677 2573 4106 2573 
Q 4534 2573 4796 2227 
Q 5059 1882 5059 1254 
Q 5059 614 4796 268 
Q 4534 -77 4106 -77 
z
M 4106 250 
Q 4349 250 4502 502 
Q 4656 755 4656 1254 
Q 4656 1754 4502 2000 
Q 4349 2246 4106 2246 
Q 3856 2246 3702 2000 
Q 3549 1754 3549 1254 
Q 3549 755 3702 502 
Q 3856 250 4106 250 
z
" transform="scale(0.015625)"/>
       <path id="SourceSans3-Regular-49" d="M 576 0 
L 576 4198 
L 1107 4198 
L 1107 0 
L 576 0 
z
" transform="scale(0.015625)"/>
      </defs>
      <use xlink:href="#SourceSans3-Regular-39"/>
      <use xlink:href="#SourceSans3-Regular-35" transform="translate(49.699997 0)"/>
      <use xlink:href="#SourceSans3-Regular-25" transform="translate(99.399994 0)"/>
      <use xlink:href="#SourceSans3-Regular-20" transform="translate(181.799988 0)"/>
      <use xlink:href="#SourceSans3-Regular-43" transform="translate(201.799973 0)"/>
      <use xlink:href="#SourceSans3-Regular-49" transform="translate(258.899963 0)"/>
      <use xlink:href="#SourceSans3-Regular-20" transform="translate(285.199951 0)"/>
      <use xlink:href="#SourceSans3-Regular-28" transform="translate(305.199936 0)"/>
      <use xlink:href="#SourceSans3-Regular-62" transform="translate(335.499924 0)"/>
      <use xlink:href="#SourceSans3-Regular-6f" transform="translate(390.799911 0)"/>
      <use xlink:href="#SourceSans3-Regular-6f" transform="translate(444.999908 0)"/>
      <use xlink:href="#SourceSans3-Regular-74" transform="translate(499.199905 0)"/>
      <use xlink:href="#SourceSans3-Regular-73" transform="translate(532.999893 0)"/>
      <use xlink:href="#SourceSans3-Regular-74" transform="translate(574.899887 0)"/>
      <use xlink:href="#SourceSans3-Regular-72" transform="translate(608.699875 0)"/>
      <use xlink:href="#SourceSans3-Regular-61" transform="translate(643.399872 0)"/>
      <use xlink:href="#SourceSans3-Regular-70" transform="translate(693.799866 0)"/>
      <use xlink:href="#SourceSans3-Regular-20" transform="translate(749.29985 0)"/>
      <use xlink:href="#SourceSans3-Regular-6f" transform="translate(769.299835 0)"/>
      <use xlink:href="#SourceSans3-Regular-76" transform="translate(823.499832 0)"/>
      <use xlink:href="#SourceSans3-Regular-65" transform="translate(870.199829 0)"/>
      <use xlink:href="#SourceSans3-Regular-72" transform="translate(919.79982 0)"/>
      <use xlink:href="#SourceSans3-Regular-20" transform="translate(954.499817 0)"/>
      <use xlink:href="#SourceSans3-Regular-73" transform="translate(974.499802 0)"/>
      <use xlink:href="#SourceSans3-Regular-75" transform="translate(1016.399796 0)"/>
      <use xlink:href="#SourceSans3-Regular-62" transform="translate(1070.799789 0)"/>
      <use xlink:href="#SourceSans3-Regular-73" transform="translate(1126.099777 0)"/>
      <use xlink:href="#SourceSans3-Regular-74" transform="translate(1167.999771 0)"/>
      <use xlink:href="#SourceSans3-Regular-72" transform="translate(1201.799759 0)"/>
      <use xlink:href="#SourceSans3-Regular-61" transform="translate(1236.499756 0)"/>
      <use xlink:href="#SourceSans3-Regular-74" transform="translate(1286.89975 0)"/>
      <use xlink:href="#SourceSans3-Regular-65" transform="translate(1320.699738 0)"/>
      <use xlink:href="#SourceSans3-Regular-73" transform="translate(1370.299728 0)"/>
      <use xlink:href="#SourceSans3-Regular-29" transform="translate(1412.199722 0)"/>
     </g>
    </g>
   </g>
  </g>
 </g>
 <defs>
  <clipPath id="p8ddd74eabe">
   <rect x="50.555" y="33.130312" width="321.35875" height="196.64"/>
  </clipPath>
 </defs>
</svg>
